<svg width="118" height="33" viewBox="0 0 118 33" fill="none" xmlns="http://www.w3.org/2000/svg">
<path d="M0.708069 16.3951C5.21868 10.2081 11.1866 5.48826 17.0429 0.402344C17.4416 3.56161 16.698 6.21482 14.8364 8.52455C12.8278 11.018 10.217 12.6309 7.20612 13.7052C5.00099 14.4925 2.87079 15.4905 0.708069 16.3951Z" fill="#6D9FFF"/>
<path d="M16.2922 12.207C15.437 14.2213 14.3542 15.731 12.6636 16.647C11.031 17.5318 9.32625 18.3022 7.60314 18.9991C4.6969 20.1737 3.02327 22.3987 1.86982 25.3869C1.50513 24.8893 1.14468 24.4483 0.837937 23.9719C-0.536025 21.829 -0.215151 19.9829 1.76239 18.4167C3.73711 16.8519 6.06239 15.9826 8.36928 15.0935C10.9165 14.1125 13.4976 13.2205 16.2908 12.2084L16.2922 12.207Z" fill="#0755E9"/>
<path d="M11.4368 31.797C8.82735 31.332 6.44695 30.4372 4.34077 28.8074C3.2368 27.9536 2.97105 26.9542 3.43752 25.7584C3.91813 24.5244 4.53726 23.3455 5.2412 22.1553C5.68364 26.4708 7.76296 29.6386 11.4382 31.797H11.4368Z" fill="#000714"/>
<path d="M25.1665 26V6.4668H38.0996V9.87176H29.2963V14.5262H37.2412V17.9311H29.2963V26H25.1665ZM46.345 26.2861C44.8635 26.2861 43.5822 25.9714 42.5013 25.3419C41.4267 24.7061 40.5969 23.8222 40.0119 22.6904C39.427 21.5523 39.1345 20.2329 39.1345 18.7323C39.1345 17.219 39.427 15.8964 40.0119 14.7646C40.5969 13.6264 41.4267 12.7426 42.5013 12.1131C43.5822 11.4773 44.8635 11.1593 46.345 11.1593C47.8265 11.1593 49.1045 11.4773 50.1791 12.1131C51.2601 12.7426 52.093 13.6264 52.678 14.7646C53.263 15.8964 53.5555 17.219 53.5555 18.7323C53.5555 20.2329 53.263 21.5523 52.678 22.6904C52.093 23.8222 51.2601 24.7061 50.1791 25.3419C49.1045 25.9714 47.8265 26.2861 46.345 26.2861ZM46.364 23.1387C47.038 23.1387 47.6008 22.9479 48.0522 22.5664C48.5037 22.1786 48.8438 21.6508 49.0728 20.9832C49.308 20.3155 49.4256 19.5557 49.4256 18.7037C49.4256 17.8516 49.308 17.0918 49.0728 16.4242C48.8438 15.7565 48.5037 15.2288 48.0522 14.8409C47.6008 14.453 47.038 14.2591 46.364 14.2591C45.6837 14.2591 45.1114 14.453 44.6473 14.8409C44.1895 15.2288 43.8429 15.7565 43.6077 16.4242C43.3787 17.0918 43.2643 17.8516 43.2643 18.7037C43.2643 19.5557 43.3787 20.3155 43.6077 20.9832C43.8429 21.6508 44.1895 22.1786 44.6473 22.5664C45.1114 22.9479 45.6837 23.1387 46.364 23.1387ZM56.1974 26V11.3501H60.1365V13.9062H60.2891C60.5561 12.9969 61.0044 12.3102 61.6339 11.8461C62.2634 11.3755 62.9883 11.1403 63.8085 11.1403C64.012 11.1403 64.2313 11.153 64.4666 11.1784C64.7019 11.2039 64.9085 11.2388 65.0865 11.2833V14.8886C64.8958 14.8314 64.6319 14.7805 64.2949 14.736C63.9579 14.6915 63.6495 14.6692 63.3698 14.6692C62.7721 14.6692 62.238 14.7996 61.7674 15.0603C61.3033 15.3146 60.9345 15.6707 60.6611 16.1285C60.394 16.5863 60.2605 17.114 60.2605 17.7117V26H56.1974ZM73.1054 31.7989C71.7892 31.7989 70.6605 31.6177 69.7195 31.2553C68.7848 30.8992 68.0408 30.4128 67.4877 29.796C66.9345 29.1792 66.5752 28.4862 66.4099 27.7168L70.1677 27.2113C70.2822 27.5038 70.4634 27.7772 70.7114 28.0315C70.9594 28.2859 71.2868 28.4893 71.6938 28.6419C72.1071 28.8009 72.6094 28.8804 73.2007 28.8804C74.0846 28.8804 74.8126 28.6642 75.3849 28.2318C75.9635 27.8058 76.2528 27.0905 76.2528 26.0858V23.4057H76.0811C75.9031 23.8127 75.636 24.1974 75.28 24.5598C74.9239 24.9222 74.4661 25.2179 73.9065 25.4468C73.347 25.6757 72.6793 25.7902 71.9036 25.7902C70.8036 25.7902 69.8021 25.5358 68.8992 25.0272C68.0027 24.5121 67.2874 23.7268 66.7533 22.6713C66.2255 21.6095 65.9616 20.2678 65.9616 18.6464C65.9616 16.9869 66.2319 15.6007 66.7723 14.488C67.3128 13.3753 68.0313 12.5423 68.9278 11.9891C69.8307 11.4359 70.8195 11.1593 71.8941 11.1593C72.7143 11.1593 73.401 11.2992 73.9542 11.579C74.5074 11.8524 74.9525 12.1958 75.2895 12.6091C75.6328 13.016 75.8967 13.4166 76.0811 13.8108H76.2337V11.3501H80.2682V26.1431C80.2682 27.3893 79.963 28.4321 79.3525 29.2714C78.7421 30.1107 77.8965 30.7402 76.8155 31.1599C75.7409 31.5859 74.5042 31.7989 73.1054 31.7989ZM73.1912 22.7381C73.8461 22.7381 74.3993 22.576 74.8508 22.2517C75.3086 21.921 75.6583 21.4505 75.8999 20.8401C76.1479 20.2233 76.2719 19.4858 76.2719 18.6274C76.2719 17.769 76.1511 17.025 75.9094 16.3955C75.6678 15.7597 75.3181 15.2669 74.8603 14.9172C74.4025 14.5675 73.8461 14.3926 73.1912 14.3926C72.5236 14.3926 71.9608 14.5738 71.503 14.9363C71.0452 15.2923 70.6987 15.7883 70.4634 16.4242C70.2282 17.06 70.1105 17.7944 70.1105 18.6274C70.1105 19.473 70.2282 20.2043 70.4634 20.821C70.705 21.4314 71.0516 21.9051 71.503 22.2421C71.9608 22.5728 72.5236 22.7381 73.1912 22.7381ZM90.1778 26.2861C88.6709 26.2861 87.3738 25.9809 86.2865 25.3705C85.2055 24.7537 84.3726 23.8826 83.7876 22.7572C83.2026 21.6254 82.9101 20.2869 82.9101 18.7418C82.9101 17.2349 83.2026 15.9123 83.7876 14.7741C84.3726 13.636 85.196 12.749 86.2578 12.1131C87.3261 11.4773 88.5787 11.1593 90.0157 11.1593C90.9822 11.1593 91.8819 11.3151 92.7149 11.6267C93.5542 11.9319 94.2854 12.3929 94.9085 13.0097C95.538 13.6264 96.0276 14.4022 96.3773 15.3369C96.7271 16.2652 96.9019 17.3525 96.9019 18.5987V19.7147H84.5315V17.1967H93.0773C93.0773 16.6117 92.9501 16.0935 92.6958 15.6421C92.4414 15.1906 92.0886 14.8377 91.6371 14.5834C91.192 14.3227 90.6738 14.1923 90.0825 14.1923C89.4657 14.1923 88.9189 14.3354 88.442 14.6215C87.9714 14.9013 87.6027 15.2796 87.3356 15.7565C87.0685 16.227 86.9318 16.7516 86.9255 17.3302V19.7242C86.9255 20.4491 87.059 21.0754 87.3261 21.6031C87.5995 22.1309 87.9842 22.5378 88.4801 22.8239C88.9761 23.1101 89.5642 23.2531 90.2446 23.2531C90.696 23.2531 91.1093 23.1896 91.4845 23.0624C91.8596 22.9352 92.1807 22.7445 92.4478 22.4901C92.7149 22.2358 92.9183 21.9242 93.0582 21.5554L96.8161 21.8034C96.6253 22.7063 96.2343 23.4948 95.6429 24.1688C95.058 24.8364 94.3013 25.3578 93.373 25.7329C92.451 26.1017 91.3859 26.2861 90.1778 26.2861ZM103.502 6.4668L107.441 13.1241H107.594L111.552 6.4668H116.216L110.255 16.2334L116.349 26H111.599L107.594 19.3332H107.441L103.435 26H98.7045L104.818 16.2334L98.819 6.4668H103.502Z" fill="white"/>
</svg>
