<svg width="119" height="40" viewBox="0 0 119 40" fill="#000000" xmlns="http://www.w3.org/2000/svg">
<g clip-path="url(#clip0_2_58)">
<path d="M8.89241 32.3946H15.6099V14.4144H8.89241C6.53311 14.4144 4.27045 15.3616 2.60217 17.0475C0.9339 18.7335 -0.00332642 21.0202 -0.00332642 23.4045C-0.00332642 25.7888 0.9339 28.0755 2.60217 29.7614C4.27045 31.4474 6.53311 32.3946 8.89241 32.3946ZM10.2991 17.4105C10.499 17.4105 10.6945 17.4705 10.8608 17.5827C11.027 17.695 11.1566 17.8545 11.2331 18.0412C11.3096 18.2279 11.3296 18.4333 11.2906 18.6315C11.2516 18.8297 11.1553 19.0118 11.014 19.1546C10.8726 19.2975 10.6924 19.3948 10.4963 19.4343C10.3002 19.4737 10.097 19.4534 9.91222 19.3761C9.7275 19.2988 9.56961 19.1678 9.45852 18.9998C9.34744 18.8318 9.28815 18.6343 9.28815 18.4322C9.28858 18.1614 9.39524 17.9018 9.58473 17.7103C9.77423 17.5188 10.0311 17.411 10.2991 17.4105ZM10.2991 22.3862C10.499 22.3862 10.6945 22.4461 10.8608 22.5584C11.027 22.6706 11.1566 22.8302 11.2331 23.0169C11.3096 23.2036 11.3296 23.409 11.2906 23.6072C11.2516 23.8054 11.1553 23.9874 11.014 24.1303C10.8726 24.2732 10.6924 24.3705 10.4963 24.4099C10.3002 24.4493 10.097 24.4291 9.91222 24.3518C9.7275 24.2744 9.56961 24.1435 9.45852 23.9755C9.34744 23.8074 9.28815 23.6099 9.28815 23.4078C9.28858 23.137 9.39524 22.8774 9.58473 22.6859C9.77423 22.4944 10.0311 22.3866 10.2991 22.3862ZM10.2991 27.3618C10.4991 27.3618 10.6946 27.4218 10.8609 27.5341C11.0272 27.6464 11.1568 27.8061 11.2333 27.9929C11.3097 28.1797 11.3296 28.3852 11.2905 28.5834C11.2514 28.7817 11.1549 28.9637 11.0134 29.1065C10.8718 29.2493 10.6915 29.3465 10.4953 29.3857C10.2991 29.425 10.0958 29.4045 9.91107 29.3269C9.72637 29.2493 9.5686 29.1181 9.45771 28.9499C9.34683 28.7816 9.28782 28.5839 9.28815 28.3818C9.28858 28.1111 9.39529 27.8517 9.58483 27.6605C9.77438 27.4692 10.0313 27.3618 10.2991 27.3618ZM5.37402 19.8992C5.57404 19.8992 5.76956 19.9592 5.93585 20.0715C6.10214 20.1838 6.23171 20.3435 6.30818 20.5303C6.38465 20.7171 6.40457 20.9226 6.36543 21.1208C6.32628 21.319 6.22984 21.5011 6.08828 21.6439C5.94673 21.7867 5.76644 21.8839 5.57023 21.9231C5.37401 21.9623 5.17069 21.9419 4.98599 21.8643C4.80129 21.7867 4.64352 21.6555 4.53263 21.4873C4.42175 21.319 4.36274 21.1213 4.36307 20.9192C4.36351 20.6485 4.47021 20.3891 4.65976 20.1978C4.8493 20.0066 5.10619 19.8992 5.37402 19.8992ZM5.37402 24.8731C5.57397 24.8731 5.76943 24.9331 5.93568 25.0453C6.10193 25.1576 6.2315 25.3172 6.30802 25.5038C6.38454 25.6905 6.40456 25.896 6.36555 26.0941C6.32654 26.2923 6.23026 26.4744 6.08887 26.6173C5.94749 26.7601 5.76735 26.8574 5.57125 26.8969C5.37514 26.9363 5.17187 26.9161 4.98714 26.8387C4.80242 26.7614 4.64453 26.6304 4.53344 26.4624C4.42236 26.2944 4.36307 26.0969 4.36307 25.8948C4.36285 25.7604 4.38882 25.6273 4.43951 25.5031C4.4902 25.3788 4.5646 25.2659 4.65848 25.1707C4.75235 25.0755 4.86386 25 4.98664 24.9483C5.10941 24.8967 5.24104 24.87 5.37402 24.8698V24.8731Z" fill="#000000"/>
<path d="M32.1377 0H15.2258V12.9289H15.8544C16.272 12.9289 16.6725 12.7613 16.9678 12.4628C17.2631 12.1644 17.429 11.7596 17.429 11.3376V2.22652H32.1593C41.8632 2.22652 49.8826 10.0823 49.9392 19.8958C49.9503 22.238 49.5038 24.5594 48.6252 26.7268C47.7467 28.8942 46.4533 30.865 44.8193 32.5261C43.1854 34.1872 41.243 35.506 39.1036 36.4067C36.9642 37.3075 34.6699 37.7725 32.3522 37.7752H17.429V27.9835C16.8313 28.1628 16.302 28.522 15.9116 29.0132C15.5212 29.5044 15.2884 30.1042 15.2441 30.7326L15.2258 30.9965V39.9933H32.3522C34.9568 39.9933 37.5358 39.4736 39.9412 38.4641C42.3466 37.4545 44.5312 35.975 46.3695 34.1103C48.2078 32.2456 49.6638 30.0324 50.6539 27.5978C51.6439 25.1631 52.1486 22.5549 52.139 19.9227C52.1041 8.87582 43.0753 0 32.1377 0Z" fill="#000000"/>
<path d="M32.3938 11.0133H26.0537V28.9934H32.3938C34.7531 28.9934 37.0157 28.0463 38.684 26.3603C40.3523 24.6743 41.2895 22.3877 41.2895 20.0034C41.2895 17.619 40.3523 15.3324 38.684 13.6464C37.0157 11.9604 34.7531 11.0133 32.3938 11.0133ZM30.9871 25.9973C30.7871 25.9973 30.5917 25.9374 30.4254 25.8251C30.2592 25.7129 30.1296 25.5533 30.0531 25.3666C29.9766 25.1799 29.9565 24.9745 29.9956 24.7763C30.0346 24.5781 30.1308 24.3961 30.2722 24.2532C30.4136 24.1103 30.5938 24.013 30.7899 23.9736C30.986 23.9342 31.1892 23.9544 31.374 24.0317C31.5587 24.1091 31.7166 24.24 31.8277 24.408C31.9387 24.576 31.998 24.7736 31.998 24.9756C31.998 25.2466 31.8915 25.5065 31.7019 25.6981C31.5123 25.8897 31.2552 25.9973 30.9871 25.9973ZM30.9871 21.0217C30.7871 21.0217 30.5917 20.9618 30.4254 20.8495C30.2592 20.7372 30.1296 20.5777 30.0531 20.391C29.9766 20.2043 29.9565 19.9989 29.9956 19.8007C30.0346 19.6025 30.1308 19.4204 30.2722 19.2776C30.4136 19.1347 30.5938 19.0374 30.7899 18.998C30.986 18.9585 31.1892 18.9788 31.374 19.0561C31.5587 19.1334 31.7166 19.2644 31.8277 19.4324C31.9387 19.6004 31.998 19.7979 31.998 20C31.998 20.271 31.8915 20.5308 31.7019 20.7224C31.5123 20.914 31.2552 21.0217 30.9871 21.0217ZM30.9871 16.046C30.7871 16.046 30.5915 15.9861 30.4253 15.8737C30.259 15.7614 30.1294 15.6017 30.0529 15.415C29.9765 15.2282 29.9565 15.0227 29.9957 14.8244C30.0348 14.6262 30.1313 14.4442 30.2728 14.3013C30.4144 14.1585 30.5947 14.0613 30.7909 14.0221C30.9871 13.9829 31.1904 14.0034 31.3751 14.0809C31.5598 14.1585 31.7176 14.2897 31.8285 14.458C31.9394 14.6262 31.9984 14.8239 31.998 15.026C31.998 15.1601 31.9719 15.2929 31.9211 15.4168C31.8702 15.5406 31.7957 15.6531 31.7018 15.7479C31.6079 15.8426 31.4965 15.9177 31.3738 15.9689C31.2512 16.02 31.1198 16.0463 30.9871 16.046ZM35.9155 23.5087C35.7155 23.5087 35.5201 23.4487 35.3538 23.3365C35.1876 23.2242 35.058 23.0646 34.9815 22.878C34.905 22.6913 34.885 22.4858 34.924 22.2877C34.963 22.0895 35.0593 21.9074 35.2006 21.7645C35.342 21.6217 35.5222 21.5244 35.7183 21.4849C35.9144 21.4455 36.1176 21.4657 36.3024 21.5431C36.4871 21.6204 36.645 21.7514 36.7561 21.9194C36.8672 22.0874 36.9264 22.2849 36.9264 22.487C36.9264 22.7579 36.8199 23.0178 36.6303 23.2094C36.4408 23.401 36.1836 23.5087 35.9155 23.5087ZM35.9155 18.5347C35.7155 18.5347 35.5201 18.4748 35.3538 18.3625C35.1876 18.2503 35.058 18.0907 34.9815 17.904C34.905 17.7173 34.885 17.5119 34.924 17.3137C34.963 17.1155 35.0593 16.9335 35.2006 16.7906C35.342 16.6477 35.5222 16.5504 35.7183 16.511C35.9144 16.4716 36.1176 16.4918 36.3024 16.5691C36.4871 16.6464 36.645 16.7774 36.7561 16.9454C36.8672 17.1134 36.9264 17.311 36.9264 17.513C36.9264 17.784 36.8199 18.0439 36.6303 18.2355C36.4408 18.4271 36.1836 18.5347 35.9155 18.5347Z" fill="#000000"/>
<path d="M17.2145 11.0133C16.6853 11.0133 16.1778 11.2257 15.8036 11.6039C15.4294 11.982 15.2192 12.4949 15.2192 13.0297V31.0099C15.2192 30.4751 15.4294 29.9622 15.8036 29.5841C16.1778 29.2059 16.6853 28.9934 17.2145 28.9934H26.1601V11.0133H17.2145Z" fill="#000000"/>
<path d="M69.1706 12.3408H64.4982V27.6676H69.1706C70.1758 27.6827 71.174 27.4956 72.1071 27.1172C73.0401 26.7388 73.8894 26.1767 74.6056 25.4636C75.3217 24.7505 75.8904 23.9006 76.2786 22.9634C76.6668 22.0261 76.8667 21.0202 76.8667 20.0042C76.8667 18.9882 76.6668 17.9823 76.2786 17.045C75.8904 16.1078 75.3217 15.2579 74.6056 14.5448C73.8894 13.8317 73.0401 13.2696 72.1071 12.8912C71.174 12.5128 70.1758 12.3257 69.1706 12.3408ZM69.1706 24.9437H67.1919V15.063H69.1706C69.8202 15.0509 70.4658 15.1698 71.0695 15.4126C71.6732 15.6555 72.2229 16.0176 72.6866 16.4776C73.1503 16.9376 73.5186 17.4864 73.77 18.0919C74.0214 18.6974 74.1509 19.3475 74.1509 20.0042C74.1509 20.6609 74.0214 21.3109 73.77 21.9165C73.5186 22.522 73.1503 23.0708 72.6866 23.5308C72.2229 23.9908 71.6732 24.3529 71.0695 24.5957C70.4658 24.8386 69.8202 24.9575 69.1706 24.9454V24.9437Z" fill="#000000"/>
<path d="M119 12.3273H116.306V27.6726H119V12.3273Z" fill="#000000"/>
<path d="M85.1546 12.3425C84.554 12.341 83.9689 12.535 83.4859 12.8958C83.0029 13.2565 82.6476 13.7648 82.4726 14.3455L78.3972 27.6727H81.2239L82.4926 23.5221H87.8383L89.107 27.6727H91.9337L87.8416 14.3455C87.6664 13.764 87.3104 13.2551 86.8264 12.8943C86.3423 12.5335 85.7561 12.3399 85.1546 12.3425ZM83.314 20.7999L85.0416 15.1487C85.0549 15.105 85.0682 15.0647 85.1546 15.0647C85.2411 15.0647 85.2544 15.105 85.2677 15.1487L86.9953 20.7999H83.314Z" fill="#000000"/>
<path d="M106.318 24.3774L103.909 12.3357H101.159L98.7476 24.3774L95.0663 12.3273H92.2396L96.3799 25.8662C96.5328 26.3864 96.8488 26.8422 97.2804 27.165C97.712 27.4878 98.2357 27.6601 98.7726 27.6558H98.9056C99.4648 27.6331 100 27.4201 100.424 27.0513C100.849 26.6825 101.137 26.1796 101.243 25.6243L102.527 19.2052L103.812 25.6243C103.917 26.1783 104.204 26.6803 104.627 27.049C105.049 27.4177 105.583 27.6315 106.14 27.6558H106.275C106.812 27.6595 107.335 27.4871 107.767 27.1643C108.198 26.8416 108.514 26.3861 108.668 25.8662L112.806 12.3273H109.98L106.318 24.3774Z" fill="#000000"/>
</g>
<defs>
<clipPath id="clip0_2_58">
<rect width="119" height="40" fill="#000000"/>
</clipPath>
</defs>
</svg>
